<?xml version="1.0" encoding="UTF-8"?>
<svg id="Ebene_1" xmlns="http://www.w3.org/2000/svg" version="1.1" viewBox="0 0 187.8227197 38">
  <!-- Generator: Adobe Illustrator 29.0.0, SVG Export Plug-In . SVG Version: 2.1.0 Build 186)  -->
  <defs>
    <style>
      .st0 {
        fill: #ff6900;
      }

      .st1 {
        fill: #1d1d1b;
      }
    </style>
  </defs>
  <path class="st0" d="M18.9999759,38.0000015C8.506834,38.0000015,0,29.4931995,0,19.0000006,0,8.5068189,8.463644,0,18.9999759,0c10.5364149,0,19.0000256,8.5068189,19.0000256,19.0000006,0,10.4931989-8.5068122,19.0000008-19.0000256,19.0000008Z"/>
  <g>
    <path class="st1" d="M31.4149431,19.0000007c0-4.3614008-3.5408799-7.8591007-7.8590802-7.8591007s-7.8590997,3.5409013-7.8590997,7.8591007,3.5408994,7.8591007,7.8590997,7.8591007,7.8590802-3.5409004,7.8590802-7.8591007Z"/>
    <path class="st1" d="M9.4135079,21.8284502h3.7351552v-5.656899h-3.7351552c-1.562105,0-2.8284495,1.2663381-2.8284495,2.8284495v.0000064c0,1.562105,1.2663445,2.8284431,2.8284495,2.8284431Z"/>
  </g>
  <g>
    <path class="st1" d="M70.3274194,22.0834351c0,1.684082-.4750366,3.0932617-2.2454224,3.0932617-1.7705078,0-2.2454834-1.4091797-2.2454834-3.0932617v-7.1682129h-3.1954956v7.8591309c0,3.065918,2.4613647,4.8532104,5.440979,4.8532104,2.9794922,0,5.440918-1.7872925,5.440918-4.8532104v-7.8591309h-3.1954956v7.1682129Z"/>
    <path class="st1" d="M51.4555322,10.6196289h-4.953125v16.7045898h4.953125c5.2998047,0,9.2861328-1.7285156,9.2861328-8.3637695,0-6.6357422-3.9863281-8.3408203-9.2861328-8.3408203ZM51.3178368,24.7441406h-1.5214844v-11.5439453h1.5214844c3.0410156,0,6.0136719.7602539,6.0136719,5.7602539,0,5.0454102-2.9726562,5.7836914-6.0136719,5.7836914Z"/>
    <path class="st1" d="M81.6752587,25.1582031c-1.7509766,0-2.9951172-1.4511719-2.9951172-4.0546875,0-2.5810547,1.3134766-3.9863281,2.9716797-3.9863281,1.2216797,0,2.3271484.8525391,2.5810547,2.0507812h3.0410156c-.4375-3.0644531-3.0185547-4.5161133-5.6220703-4.5161133-3.7089844,0-6.2207031,2.71875-6.2207031,6.4975586,0,3.7558594,2.3730469,6.4746094,6.0830078,6.4746094,2.5800781,0,5.1376953-1.1289062,5.875-4.5166016h-3.0410156c-.4375,1.4746094-1.5673828,2.0507812-2.6728516,2.0507812Z"/>
    <polygon class="st1" points="100.5199853 14.9282227 96.9486962 14.9282227 92.4330712 19.9052734 92.4330712 10.6196289 89.2533837 10.6196289 89.2533837 27.3242188 92.4330712 27.3242188 92.4330712 23.5917969 93.953579 21.9560547 97.2026025 27.3242188 100.7738915 27.3242188 96.0736962 19.6748047 100.5199853 14.9282227"/>
    <path class="st1" d="M107.03854,10.6196289h-4.953125v16.7045898h4.953125c5.2997944,0,9.2861328-1.7285156,9.2861328-8.3637695,0-6.6357422-3.9863385-8.3408203-9.2861328-8.3408203ZM106.9008447,24.7441406h-1.5205078v-11.5439453h1.5205078c3.0410156,0,6.0136719.7602539,6.0136719,5.7602539,0,5.0454102-2.9726562,5.7836914-6.0136719,5.7836914Z"/>
    <path class="st1" d="M129.3168603,18.4995117c.8525391-.5527344,1.8896484-1.9584961,1.8896484-3.5249023,0-3.4331055-3.1572266-4.3549805-6.0830078-4.3549805h-6.4970703v16.7045898h6.7734375c3.4335938,0,6.4052734-1.3359375,6.4052734-4.9306641,0-2.3037109-1.1982422-3.2719727-2.4882812-3.894043ZM121.9213525,13.2001953h3.4091797c1.5439453,0,2.4892578.7832031,2.4892578,2.0966797,0,1.4746094-.921875,2.2119141-2.4892578,2.2119141h-3.4091797v-4.3085938ZM125.5610009,24.7441406h-3.6396484v-4.7470703h3.5019531c2.0507812,0,3.0185547.8300781,3.0185547,2.3964844,0,1.5439453-.9453125,2.3505859-2.8808594,2.3505859Z"/>
    <polygon class="st1" points="141.7943993 10.6196289 140.250454 10.6196289 140.250454 27.3242188 150.6420556 27.3242188 150.6420556 25.8955078 141.7943993 25.8955078 141.7943993 10.6196289"/>
    <path class="st1" d="M160.4779931,17.0712891c-.8525391-1.4980469-2.3496094-2.3505859-4.1933594-2.3505859-2.8574219,0-5.1611328,2.3271484-5.1611328,6.4511719,0,4.125,2.3037109,6.4521484,5.1611328,6.4521484,1.84375,0,3.3408203-.8525391,4.1933594-2.3271484v2.0273438h1.4511719v-12.3959961h-1.4511719v2.1430664ZM156.5844384,26.3330078c-2.3046875,0-3.9169922-1.8662109-3.9169922-5.1611328,0-3.2944336,1.6123047-5.1606445,3.9169922-5.1606445,1.9121094,0,4.0087891,1.4746094,4.0087891,5.1606445,0,3.6865234-2.0966797,5.1611328-4.0087891,5.1611328Z"/>
    <path class="st1" d="M170.9818993,14.7207031c-1.8427734,0-3.2949219.8525391-4.1933594,2.3505859v-6.4516602h-1.4277344v16.7045898h1.4277344v-2.0273438c.8984375,1.4746094,2.3505859,2.3271484,4.1933594,2.3271484,2.8574219,0,5.1845703-2.3271484,5.1845703-6.4521484,0-4.1240234-2.3271484-6.4511719-5.1845703-6.4511719ZM170.6830712,26.3330078c-1.8662109,0-3.9863281-1.4746094-3.9863281-5.1611328,0-3.6860352,2.1201172-5.1606445,3.9863281-5.1606445,2.3037109,0,3.9394531,1.8662109,3.9394531,5.1606445,0,3.2949219-1.6357422,5.1611328-3.9394531,5.1611328Z"/>
    <path class="st1" d="M183.5375634,20.4345703l-1.7519531-.3222656c-1.3818359-.253418-2.3271484-.8984375-2.3271484-2.1196289,0-1.4975586,1.7978516-2.0273438,3.1572266-2.0273438,1.7509766,0,3.1103516.8754883,3.4101562,2.3500977h1.4970703c-.2988281-1.9584961-2.0966797-3.6176758-4.7695312-3.6176758-2.7871094,0-4.7460938,1.4516602-4.7460938,3.4101562s1.5898438,2.9487305,3.3642578,3.3178711l1.9355469.3691406c1.6816406.3222656,3.0644531.8291016,3.0644531,2.2802734,0,1.6591797-1.8662109,2.28125-3.3642578,2.28125-1.8896484,0-3.5019531-.8984375-3.7558594-2.8339844h-1.4970703c.3681641,2.8339844,2.5800781,4.1015625,5.1376953,4.1015625,2.6953125,0,4.9306641-1.3134766,4.9306641-3.7792969,0-2.3496094-2.2578125-3.0410156-4.2851562-3.4101562Z"/>
  </g>
</svg>